<?xml version="1.0" encoding="utf-8"?>
<!-- Generator: Adobe Illustrator 27.3.1, SVG Export Plug-In . SVG Version: 6.00 Build 0)  -->
<svg version="1.1" id="레이어_1" xmlns="http://www.w3.org/2000/svg" xmlns:xlink="http://www.w3.org/1999/xlink" x="0px"
	 y="0px" viewBox="0 0 200 200" style="enable-background:new 0 0 200 200;" xml:space="preserve">
<style type="text/css">
	.st0{display:none;fill:#FFFFFF;}
	.st1{fill:#FFFFFF;}
</style>
<rect class="st0" width="200" height="200"/>
<circle class="st1" cx="100" cy="100" r="100"/>
<rect x="96" y="50" width="8" height="20"/>
<path d="M42.26,131h-2.52c-3.17,0-5.74-2.57-5.74-5.74V94.74c0-3.17,2.57-5.74,5.74-5.74h2.52c3.17,0,5.74,2.57,5.74,5.74v30.52
	C48,128.43,45.43,131,42.26,131z"/>
<path d="M160.26,131h-2.52c-3.17,0-5.74-2.57-5.74-5.74V94.74c0-3.17,2.57-5.74,5.74-5.74h2.52c3.17,0,5.74,2.57,5.74,5.74v30.52
	C166,128.43,163.43,131,160.26,131z"/>
<path d="M74,110L74,110c-1.66,0-3-1.34-3-3V97c0-1.66,1.34-3,3-3l0,0c1.66,0,3,1.34,3,3v10C77,108.66,75.66,110,74,110z"/>
<path d="M126,110L126,110c-1.66,0-3-1.34-3-3V97c0-1.66,1.34-3,3-3l0,0c1.66,0,3,1.34,3,3v10C129,108.66,127.66,110,126,110z"/>
<path d="M113.27,120c0.96,0,1.74,0.84,1.61,1.79C113.94,128.68,107.64,134,100,134c-7.64,0-13.94-5.33-14.88-12.22
	c-0.13-0.95,0.65-1.78,1.6-1.78H113.27z"/>
<path d="M136.42,151.12c-6.06,0-12.12,0-18.19,0c-6.87,0-13.74,0-20.61,0c-1.77,0-3.54,0-5.31,0C91.24,151.12,90,151,90,152
	s-2,7-7,11c-3.26,2.61-7.27,4.17-14,6c-2.84,0.77-4.45-1.44-3-4c2.42-4.27,3.02-8.37,3-13c0.38-1.73-6.49-0.22-12.61-2
	c-2.73-0.8-5.17-2.45-7.26-4.41c-4.23-3.97-6.68-9.66-6.68-15.53c0-0.01,0-43.98,0-43.98C42.45,74.43,51.66,65,63.03,65h73.39
	C147.79,65,157,74.43,157,86.07v43.98C157,141.68,147.79,151.12,136.42,151.12z M152,128.92V87.08c0-9.22-7.59-16.7-16.95-16.7
	H64.95c-9.36,0-16.95,7.48-16.95,16.7l0,40.7c0,4.27,1.54,9.09,4.49,12.22c2.19,2.33,4.06,4,8.12,5c3.21,0.79,8.12,1,9.14,1
	c5.08,0,5.08,9,3.05,16c5.59-1.46,9.14-5,10.15-7c2.03-4,2.03-7,3.05-8c2.03-2,6.3-1.38,7.28-1.38c1.61,0,3.21,0,4.82,0
	c6.24,0,12.47,0,18.71,0h18.24C144.41,145.62,152,138.14,152,128.92z"/>
<g>
	<path d="M91.07,32.53C90,34,89.19,39,89.38,39.5c-0.07-0.11-2.8,1.2-3.03,1.3c-1.22,0.54-2.44,1.07-3.67,1.6
		c-1.55,0.67-3.14,1.21-4.45,2.32c-1.24,1.05-1.84,2.86-1.84,4.46c0,0.57,0.17,1.2,0.34,1.74c0.55,1.75,2.17,3.16,3.94,3.73
		c1.3,0.42,2.61,0.14,3.84-0.37c2.01-0.84,4.02-1.59,6-2.5c2.67-1.22,5.44-2.31,8.13-3.5c1.09-0.49,1.99-1.33,2.52-2.4
		c0.83-1.67,1.11-4.09-0.05-5.66c-0.26-0.35,0.01-0.74,0.14-1.08c0.17-0.43,0.36-0.84,0.61-1.23c0.26-0.4,0.48-0.67,0.9-0.91
		c0.44-0.26,0.91-0.48,1.39-0.66c0.44-0.16,0.92-0.33,1.32-0.01c0.33,0.26,0.47,0.69,0.7,1.02c1.22,1.73,1.48,3.94,1.52,6.01
		c0.03,1.67-0.45,3.33-1.18,4.81c-0.62,1.27-1.34,2.59-2.42,3.53c-1.02,0.89-2.02,1.55-3.27,2.1c-4.45,1.97-8.88,4.01-13.41,5.81
		c-0.68,0.27-1.37,0.54-2.08,0.74c-2.57,0.72-5.39,0.31-7.8-0.78c-0.98-0.44-1.9-1-2.73-1.68c-1.37-1.12-2.48-2.33-3.17-3.97
		c-0.7-1.67-1.1-3.5-1.13-5.29c-0.08-4.37,2.94-8.47,6.75-10.39C79,37.37,90.52,32.5,91.07,32.53z"/>
	<path d="M108.7,50.14c1.05-1.48,1.83-6.49,1.64-6.98c0.07,0.11,2.77-1.21,2.99-1.32c1.2-0.55,2.41-1.08,3.62-1.62
		c1.53-0.67,3.1-1.23,4.39-2.34c1.22-1.06,1.8-2.87,1.8-4.47c0-0.57-0.17-1.2-0.34-1.74c-0.56-1.75-2.17-3.15-3.92-3.71
		c-1.29-0.41-2.58-0.13-3.8,0.39c-1.98,0.85-3.97,1.61-5.93,2.53c-2.64,1.24-5.37,2.33-8.03,3.54c-1.08,0.49-1.96,1.34-2.48,2.41
		c-0.81,1.67-1.08,4.09,0.08,5.66c0.26,0.35,0,0.74-0.13,1.09c-0.16,0.43-0.35,0.84-0.6,1.23c-0.25,0.41-0.48,0.67-0.88,0.92
		c-0.44,0.26-0.9,0.49-1.38,0.67c-0.43,0.16-0.91,0.34-1.31,0.02c-0.33-0.26-0.46-0.69-0.7-1.02c-1.21-1.72-1.49-3.94-1.53-6
		c-0.03-1.67,0.43-3.33,1.14-4.82c0.61-1.27,1.31-2.6,2.38-3.54c1.01-0.9,1.99-1.56,3.23-2.12c4.39-2,8.76-4.06,13.24-5.88
		c0.68-0.27,1.35-0.55,2.05-0.75c2.54-0.73,5.34-0.34,7.73,0.74c0.97,0.44,1.89,0.99,2.71,1.66c1.37,1.11,2.47,2.32,3.16,3.95
		c0.71,1.67,1.11,3.49,1.15,5.29c0.1,4.37-2.87,8.48-6.63,10.42C120.63,45.24,109.25,50.16,108.7,50.14z"/>
</g>
</svg>
